{
  "accessors": [
    {
      "bufferView": 2,
      "componentType": 5126,
      "count": 16508,
      "max": [
        214.91677856445313,
        63.26102066040039,
        1.0560200214385986
      ],
      "min": [
        -208.57289123535156,
        -166.1781768798828,
        -1.0591399669647217
      ],
      "type": "VEC3"
    },
    {
      "bufferView": 2,
      "byteOffset": 198096,
      "componentType": 5126,
      "count": 16508,
      "max": [
        1.0,
        1.0,
        1.0
      ],
      "min": [
        -1.0,
        -1.0,
        -1.0
      ],
      "type": "VEC3"
    },
    {
      "bufferView": 1,
      "componentType": 5126,
      "count": 16508,
      "max": [
        0.0,
        0.0
      ],
      "min": [
        0.0,
        0.0
      ],
      "type": "VEC2"
    },
    {
      "bufferView": 0,
      "componentType": 5125,
      "count": 41616,
      "type": "SCALAR"
    },
    {
      "bufferView": 2,
      "byteOffset": 396192,
      "componentType": 5126,
      "count": 14617,
      "max": [
        209.05213928222656,
        62.8572998046875,
        0.009150000289082527
      ],
      "min": [
        -209.36911010742188,
        -166.2807159423828,
        -1.0590399503707886
      ],
      "type": "VEC3"
    },
    {
      "bufferView": 2,
      "byteOffset": 571596,
      "componentType": 5126,
      "count": 14617,
      "max": [
        1.0,
        1.0,
        1.0
      ],
      "min": [
        -1.0,
        -1.0,
        -1.0
      ],
      "type": "VEC3"
    },
    {
      "bufferView": 1,
      "byteOffset": 132064,
      "componentType": 5126,
      "count": 14617,
      "max": [
        0.0,
        0.0
      ],
      "min": [
        0.0,
        0.0
      ],
      "type": "VEC2"
    },
    {
      "bufferView": 0,
      "byteOffset": 166464,
      "componentType": 5125,
      "count": 36990,
      "type": "SCALAR"
    },
    {
      "bufferView": 2,
      "byteOffset": 747000,
      "componentType": 5126,
      "count": 11527,
      "max": [
        199.962646484375,
        48.071170806884766,
        0.00872000027447939
      ],
      "min": [
        -275.1167907714844,
        -161.51087951660156,
        -1.0572799444198608
      ],
      "type": "VEC3"
    },
    {
      "bufferView": 2,
      "byteOffset": 885324,
      "componentType": 5126,
      "count": 11527,
      "max": [
        1.0,
        1.0,
        1.0
      ],
      "min": [
        -1.0,
        -1.0,
        -1.0
      ],
      "type": "VEC3"
    },
    {
      "bufferView": 1,
      "byteOffset": 249000,
      "componentType": 5126,
      "count": 11527,
      "max": [
        0.0,
        0.0
      ],
      "min": [
        0.0,
        0.0
      ],
      "type": "VEC2"
    },
    {
      "bufferView": 0,
      "byteOffset": 314424,
      "componentType": 5125,
      "count": 29445,
      "type": "SCALAR"
    },
    {
      "bufferView": 2,
      "byteOffset": 1023648,
      "componentType": 5126,
      "count": 9490,
      "max": [
        211.5245361328125,
        25.011560440063477,
        0.0027600000612437725
      ],
      "min": [
        -172.59056091308594,
        -111.8864517211914,
        -1.0575100183486938
      ],
      "type": "VEC3"
    },
    {
      "bufferView": 2,
      "byteOffset": 1137528,
      "componentType": 5126,
      "count": 9490,
      "max": [
        1.0,
        1.0,
        1.0
      ],
      "min": [
        -1.0,
        -1.0,
        -1.0
      ],
      "type": "VEC3"
    },
    {
      "bufferView": 1,
      "byteOffset": 341216,
      "componentType": 5126,
      "count": 9490,
      "max": [
        0.0,
        0.0
      ],
      "min": [
        0.0,
        0.0
      ],
      "type": "VEC2"
    },
    {
      "bufferView": 0,
      "byteOffset": 432204,
      "componentType": 5125,
      "count": 15192,
      "type": "SCALAR"
    },
    {
      "bufferView": 2,
      "byteOffset": 1251408,
      "componentType": 5126,
      "count": 9412,
      "max": [
        233.60281372070313,
        44.5289192199707,
        0.008500000461935997
      ],
      "min": [
        -164.1643524169922,
        -153.5641326904297,
        -1.0565799474716187
      ],
      "type": "VEC3"
    },
    {
      "bufferView": 2,
      "byteOffset": 1364352,
      "componentType": 5126,
      "count": 9412,
      "max": [
        1.0,
        1.0,
        1.0
      ],
      "min": [
        -1.0,
        -1.0,
        -1.0
      ],
      "type": "VEC3"
    },
    {
      "bufferView": 1,
      "byteOffset": 417136,
      "componentType": 5126,
      "count": 9412,
      "max": [
        0.0,
        0.0
      ],
      "min": [
        0.0,
        0.0
      ],
      "type": "VEC2"
    },
    {
      "bufferView": 0,
      "byteOffset": 492972,
      "componentType": 5125,
      "count": 23820,
      "type": "SCALAR"
    },
    {
      "bufferView": 2,
      "byteOffset": 1477296,
      "componentType": 5126,
      "count": 4974,
      "max": [
        145.28244018554688,
        -179.50021362304688,
        0.0007699999841861427
      ],
      "min": [
        -195.90127563476563,
        -211.45802307128906,
        -1.0552400350570679
      ],
      "type": "VEC3"
    },
    {
      "bufferView": 2,
      "byteOffset": 1536984,
      "componentType": 5126,
      "count": 4974,
      "max": [
        1.0,
        1.0,
        1.0
      ],
      "min": [
        -1.0,
        -1.0,
        -1.0
      ],
      "type": "VEC3"
    },
    {
      "bufferView": 1,
      "byteOffset": 492432,
      "componentType": 5126,
      "count": 4974,
      "max": [
        0.0,
        0.0
      ],
      "min": [
        0.0,
        0.0
      ],
      "type": "VEC2"
    },
    {
      "bufferView": 0,
      "byteOffset": 588252,
      "componentType": 5125,
      "count": 12072,
      "type": "SCALAR"
    },
    {
      "bufferView": 2,
      "byteOffset": 1596672,
      "componentType": 5126,
      "count": 4,
      "max": [
        1.0,
        1.0,
        0.0
      ],
      "min": [
        -1.0,
        -1.0,
        0.0
      ],
      "type": "VEC3"
    },
    {
      "bufferView": 2,
      "byteOffset": 1596720,
      "componentType": 5126,
      "count": 4,
      "max": [
        0.0,
        0.0,
        1.0
      ],
      "min": [
        0.0,
        0.0,
        1.0
      ],
      "type": "VEC3"
    },
    {
      "bufferView": 0,
      "byteOffset": 636540,
      "componentType": 5125,
      "count": 6,
      "type": "SCALAR"
    },
    {
      "bufferView": 2,
      "byteOffset": 1596768,
      "componentType": 5126,
      "count": 4,
      "max": [
        1.0,
        1.0,
        0.0
      ],
      "min": [
        -1.0,
        -1.0,
        0.0
      ],
      "type": "VEC3"
    },
    {
      "bufferView": 2,
      "byteOffset": 1596816,
      "componentType": 5126,
      "count": 4,
      "max": [
        0.0,
        0.0,
        1.0
      ],
      "min": [
        0.0,
        0.0,
        1.0
      ],
      "type": "VEC3"
    },
    {
      "bufferView": 0,
      "byteOffset": 636564,
      "componentType": 5125,
      "count": 6,
      "type": "SCALAR"
    },
    {
      "bufferView": 2,
      "byteOffset": 1596864,
      "componentType": 5126,
      "count": 16596,
      "max": [
        214.91677856445313,
        63.26102066040039,
        6.418920040130615
      ],
      "min": [
        -208.57289123535156,
        -166.1781768798828,
        -1.0591399669647217
      ],
      "type": "VEC3"
    },
    {
      "bufferView": 2,
      "byteOffset": 1796016,
      "componentType": 5126,
      "count": 16596,
      "max": [
        1.0,
        1.0,
        1.0
      ],
      "min": [
        -1.0,
        -1.0,
        -1.0
      ],
      "type": "VEC3"
    },
    {
      "bufferView": 1,
      "byteOffset": 532224,
      "componentType": 5126,
      "count": 16596,
      "max": [
        0.0,
        0.0
      ],
      "min": [
        0.0,
        0.0
      ],
      "type": "VEC2"
    },
    {
      "bufferView": 0,
      "byteOffset": 636588,
      "componentType": 5125,
      "count": 41814,
      "type": "SCALAR"
    },
    {
      "bufferView": 2,
      "byteOffset": 1995168,
      "componentType": 5126,
      "count": 14617,
      "max": [
        209.05213928222656,
        62.8572998046875,
        0.009150000289082527
      ],
      "min": [
        -209.36911010742188,
        -166.2807159423828,
        -1.0590399503707886
      ],
      "type": "VEC3"
    },
    {
      "bufferView": 2,
      "byteOffset": 2170572,
      "componentType": 5126,
      "count": 14617,
      "max": [
        1.0,
        1.0,
        1.0
      ],
      "min": [
        -1.0,
        -1.0,
        -1.0
      ],
      "type": "VEC3"
    },
    {
      "bufferView": 1,
      "byteOffset": 664992,
      "componentType": 5126,
      "count": 14617,
      "max": [
        0.0,
        0.0
      ],
      "min": [
        0.0,
        0.0
      ],
      "type": "VEC2"
    },
    {
      "bufferView": 0,
      "byteOffset": 803844,
      "componentType": 5125,
      "count": 36990,
      "type": "SCALAR"
    },
    {
      "bufferView": 2,
      "byteOffset": 2345976,
      "componentType": 5126,
      "count": 11527,
      "max": [
        199.962646484375,
        48.071170806884766,
        0.00872000027447939
      ],
      "min": [
        -275.1167907714844,
        -161.51087951660156,
        -1.0572799444198608
      ],
      "type": "VEC3"
    },
    {
      "bufferView": 2,
      "byteOffset": 2484300,
      "componentType": 5126,
      "count": 11527,
      "max": [
        1.0,
        1.0,
        1.0
      ],
      "min": [
        -1.0,
        -1.0,
        -1.0
      ],
      "type": "VEC3"
    },
    {
      "bufferView": 1,
      "byteOffset": 781928,
      "componentType": 5126,
      "count": 11527,
      "max": [
        0.0,
        0.0
      ],
      "min": [
        0.0,
        0.0
      ],
      "type": "VEC2"
    },
    {
      "bufferView": 0,
      "byteOffset": 951804,
      "componentType": 5125,
      "count": 29445,
      "type": "SCALAR"
    },
    {
      "bufferView": 2,
      "byteOffset": 2622624,
      "componentType": 5126,
      "count": 9490,
      "max": [
        211.5245361328125,
        25.011560440063477,
        0.0027600000612437725
      ],
      "min": [
        -172.59056091308594,
        -111.8864517211914,
        -1.0575100183486938
      ],
      "type": "VEC3"
    },
    {
      "bufferView": 2,
      "byteOffset": 2736504,
      "componentType": 5126,
      "count": 9490,
      "max": [
        1.0,
        1.0,
        1.0
      ],
      "min": [
        -1.0,
        -1.0,
        -1.0
      ],
      "type": "VEC3"
    },
    {
      "bufferView": 1,
      "byteOffset": 874144,
      "componentType": 5126,
      "count": 9490,
      "max": [
        0.0,
        0.0
      ],
      "min": [
        0.0,
        0.0
      ],
      "type": "VEC2"
    },
    {
      "bufferView": 0,
      "byteOffset": 1069584,
      "componentType": 5125,
      "count": 15192,
      "type": "SCALAR"
    },
    {
      "bufferView": 2,
      "byteOffset": 2850384,
      "componentType": 5126,
      "count": 9854,
      "max": [
        233.60281372070313,
        44.5289192199707,
        6.417799949645996
      ],
      "min": [
        -164.1643524169922,
        -153.5641326904297,
        -1.0565799474716187
      ],
      "type": "VEC3"
    },
    {
      "bufferView": 2,
      "byteOffset": 2968632,
      "componentType": 5126,
      "count": 9854,
      "max": [
        1.0,
        1.0,
        1.0
      ],
      "min": [
        -1.0,
        -1.0,
        -1.0
      ],
      "type": "VEC3"
    },
    {
      "bufferView": 1,
      "byteOffset": 950064,
      "componentType": 5126,
      "count": 9854,
      "max": [
        0.0,
        0.0
      ],
      "min": [
        0.0,
        0.0
      ],
      "type": "VEC2"
    },
    {
      "bufferView": 0,
      "byteOffset": 1130352,
      "componentType": 5125,
      "count": 25362,
      "type": "SCALAR"
    },
    {
      "bufferView": 2,
      "byteOffset": 3086880,
      "componentType": 5126,
      "count": 4974,
      "max": [
        145.28244018554688,
        -179.50021362304688,
        0.0007699999841861427
      ],
      "min": [
        -195.90127563476563,
        -211.45802307128906,
        -1.0552400350570679
      ],
      "type": "VEC3"
    },
    {
      "bufferView": 2,
      "byteOffset": 3146568,
      "componentType": 5126,
      "count": 4974,
      "max": [
        1.0,
        1.0,
        1.0
      ],
      "min": [
        -1.0,
        -1.0,
        -1.0
      ],
      "type": "VEC3"
    },
    {
      "bufferView": 1,
      "byteOffset": 1028896,
      "componentType": 5126,
      "count": 4974,
      "max": [
        0.0,
        0.0
      ],
      "min": [
        0.0,
        0.0
      ],
      "type": "VEC2"
    },
    {
      "bufferView": 0,
      "byteOffset": 1231800,
      "componentType": 5125,
      "count": 12072,
      "type": "SCALAR"
    }
  ],
  "asset": {
    "extras": {
      "author": "ercandinsel (https://sketchfab.com/ercandinsel)",
      "license": "CC-BY-4.0 (http://creativecommons.org/licenses/by/4.0/)",
      "source": "https://sketchfab.com/3d-models/2d-world-map-with-countries-74192acdc7a949f8bdae478d5da3ac6c",
      "title": "2D World Map With Countries"
    },
    "generator": "Sketchfab-12.67.0",
    "version": "2.0"
  },
  "bufferViews": [
    {
      "buffer": 0,
      "byteLength": 1280088,
      "name": "floatBufferViews",
      "target": 34963
    },
    {
      "buffer": 0,
      "byteLength": 1068688,
      "byteOffset": 1280088,
      "byteStride": 8,
      "name": "floatBufferViews",
      "target": 34962
    },
    {
      "buffer": 0,
      "byteLength": 3206256,
      "byteOffset": 2348776,
      "byteStride": 12,
      "name": "floatBufferViews",
      "target": 34962
    }
  ],
  "buffers": [
    {
      "byteLength": 5555032,
      "uri": "scene.bin"
    }
  ],
  "materials": [
    {
      "doubleSided": true,
      "name": "Color_1",
      "pbrMetallicRoughness": {
        "baseColorFactor": [
          0.7991027832,
          0.0722718462,
          0.0451862141,
          1.0
        ],
        "metallicFactor": 0.0,
        "roughnessFactor": 0.6
      }
    },
    {
      "doubleSided": true,
      "name": "Color_2",
      "pbrMetallicRoughness": {
        "baseColorFactor": [
          0.0273208879,
          0.6038274169,
          0.1651322097,
          1.0
        ],
        "metallicFactor": 0.0,
        "roughnessFactor": 0.6
      }
    },
    {
      "doubleSided": true,
      "name": "Color_3",
      "pbrMetallicRoughness": {
        "baseColorFactor": [
          0.8796226382,
          0.5520114899,
          0.0047769547,
          1.0
        ],
        "metallicFactor": 0.0,
        "roughnessFactor": 0.6
      }
    },
    {
      "doubleSided": true,
      "name": "Color_4",
      "pbrMetallicRoughness": {
        "baseColorFactor": [
          0.327778101,
          0.0998987332,
          0.4677838385,
          1.0
        ],
        "metallicFactor": 0.0,
        "roughnessFactor": 0.6
      }
    },
    {
      "doubleSided": true,
      "name": "Color5",
      "pbrMetallicRoughness": {
        "baseColorFactor": [
          0.7912980914,
          0.2086369097,
          0.0159962941,
          1.0
        ],
        "metallicFactor": 0.0,
        "roughnessFactor": 0.6
      }
    },
    {
      "doubleSided": true,
      "emissiveFactor": [
        1.0,
        1.0,
        1.0
      ],
      "name": "Antartika",
      "pbrMetallicRoughness": {
        "baseColorFactor": [
          0.2770338778744398,
          0.2970912917127135,
          0.31091921532015965,
          1.0
        ],
        "metallicFactor": 0.4285442073,
        "roughnessFactor": 0.6
      }
    },
    {
      "doubleSided": true,
      "name": "Material",
      "pbrMetallicRoughness": {
        "baseColorFactor": [
          0.0635279492,
          0.2645325959,
          0.8000000715,
          1.0
        ],
        "metallicFactor": 0.0,
        "roughnessFactor": 0.6
      }
    }
  ],
  "meshes": [
    {
      "name": "map_0",
      "primitives": [
        {
          "attributes": {
            "NORMAL": 1,
            "POSITION": 0,
            "TEXCOORD_0": 2
          },
          "indices": 3,
          "material": 0,
          "mode": 4
        }
      ]
    },
    {
      "name": "map_1",
      "primitives": [
        {
          "attributes": {
            "NORMAL": 5,
            "POSITION": 4,
            "TEXCOORD_0": 6
          },
          "indices": 7,
          "material": 1,
          "mode": 4
        }
      ]
    },
    {
      "name": "map_2",
      "primitives": [
        {
          "attributes": {
            "NORMAL": 9,
            "POSITION": 8,
            "TEXCOORD_0": 10
          },
          "indices": 11,
          "material": 2,
          "mode": 4
        }
      ]
    },
    {
      "name": "map_3",
      "primitives": [
        {
          "attributes": {
            "NORMAL": 13,
            "POSITION": 12,
            "TEXCOORD_0": 14
          },
          "indices": 15,
          "material": 3,
          "mode": 4
        }
      ]
    },
    {
      "name": "map_4",
      "primitives": [
        {
          "attributes": {
            "NORMAL": 17,
            "POSITION": 16,
            "TEXCOORD_0": 18
          },
          "indices": 19,
          "material": 4,
          "mode": 4
        }
      ]
    },
    {
      "name": "map_5",
      "primitives": [
        {
          "attributes": {
            "NORMAL": 21,
            "POSITION": 20,
            "TEXCOORD_0": 22
          },
          "indices": 23,
          "material": 5,
          "mode": 4
        }
      ]
    },
    {
      "name": "Plane_0",
      "primitives": [
        {
          "attributes": {
            "NORMAL": 25,
            "POSITION": 24
          },
          "indices": 26,
          "material": 6,
          "mode": 4
        }
      ]
    },
    {
      "name": "Plane.001_0",
      "primitives": [
        {
          "attributes": {
            "NORMAL": 28,
            "POSITION": 27
          },
          "indices": 29,
          "material": 6,
          "mode": 4
        }
      ]
    },
    {
      "name": "map.001_0",
      "primitives": [
        {
          "attributes": {
            "NORMAL": 31,
            "POSITION": 30,
            "TEXCOORD_0": 32
          },
          "indices": 33,
          "material": 0,
          "mode": 4
        }
      ]
    },
    {
      "name": "map.001_1",
      "primitives": [
        {
          "attributes": {
            "NORMAL": 35,
            "POSITION": 34,
            "TEXCOORD_0": 36
          },
          "indices": 37,
          "material": 1,
          "mode": 4
        }
      ]
    },
    {
      "name": "map.001_2",
      "primitives": [
        {
          "attributes": {
            "NORMAL": 39,
            "POSITION": 38,
            "TEXCOORD_0": 40
          },
          "indices": 41,
          "material": 2,
          "mode": 4
        }
      ]
    },
    {
      "name": "map.001_3",
      "primitives": [
        {
          "attributes": {
            "NORMAL": 43,
            "POSITION": 42,
            "TEXCOORD_0": 44
          },
          "indices": 45,
          "material": 3,
          "mode": 4
        }
      ]
    },
    {
      "name": "map.001_4",
      "primitives": [
        {
          "attributes": {
            "NORMAL": 47,
            "POSITION": 46,
            "TEXCOORD_0": 48
          },
          "indices": 49,
          "material": 4,
          "mode": 4
        }
      ]
    },
    {
      "name": "map.001_5",
      "primitives": [
        {
          "attributes": {
            "NORMAL": 51,
            "POSITION": 50,
            "TEXCOORD_0": 52
          },
          "indices": 53,
          "material": 5,
          "mode": 4
        }
      ]
    }
  ],
  "nodes": [
    {
      "children": [
        1
      ],
      "matrix": [
        1.0,
        0.0,
        0.0,
        0.0,
        0.0,
        2.220446049250313e-16,
        -1.0,
        0.0,
        0.0,
        1.0,
        2.220446049250313e-16,
        0.0,
        0.0,
        0.0,
        0.0,
        1.0
      ],
      "name": "Sketchfab_model"
    },
    {
      "children": [
        2,
        9,
        11,
        13
      ],
      "name": "Root"
    },
    {
      "children": [
        3,
        4,
        5,
        6,
        7,
        8
      ],
      "matrix": [
        0.017830000000000002,
        0.0,
        0.0,
        0.0,
        0.0,
        -0.0,
        0.017830000000000002,
        0.0,
        0.0,
        -0.017830000000000002,
        -0.0,
        0.0,
        0.6733100000000001,
        0.0,
        1.3320800000000002,
        1.0
      ],
      "name": "map"
    },
    {
      "mesh": 0,
      "name": "map_0"
    },
    {
      "mesh": 1,
      "name": "map_1"
    },
    {
      "mesh": 2,
      "name": "map_2"
    },
    {
      "mesh": 3,
      "name": "map_3"
    },
    {
      "mesh": 4,
      "name": "map_4"
    },
    {
      "mesh": 5,
      "name": "map_5"
    },
    {
      "children": [
        10
      ],
      "matrix": [
        4.971330000000001,
        0.0,
        0.0,
        0.0,
        0.0,
        -0.0,
        2.6164799999999997,
        0.0,
        0.0,
        -2.6164799999999997,
        -0.0,
        0.0,
        0.29203,
        0.004020000000000001,
        0.0,
        1.0
      ],
      "name": "Plane"
    },
    {
      "mesh": 6,
      "name": "Plane_0"
    },
    {
      "children": [
        12
      ],
      "matrix": [
        4.971330000000001,
        0.0,
        0.0,
        0.0,
        0.0,
        2.6164799999999997,
        0.0,
        0.0,
        0.0,
        -0.0,
        2.6164799999999997,
        0.0,
        0.29203,
        -2.6125599999999998,
        -2.6249200000000004,
        1.0
      ],
      "name": "Plane.001"
    },
    {
      "mesh": 7,
      "name": "Plane.001_0"
    },
    {
      "children": [
        14,
        15,
        16,
        17,
        18,
        19
      ],
      "matrix": [
        0.017830000000000002,
        0.0,
        0.0,
        0.0,
        0.0,
        0.017830000000000002,
        0.0,
        0.0,
        0.0,
        -0.0,
        0.017830000000000002,
        0.0,
        0.6733100000000001,
        -1.28047,
        -2.6209000000000002,
        1.0
      ],
      "name": "map.001"
    },
    {
      "mesh": 8,
      "name": "map.001_0"
    },
    {
      "mesh": 9,
      "name": "map.001_1"
    },
    {
      "mesh": 10,
      "name": "map.001_2"
    },
    {
      "mesh": 11,
      "name": "map.001_3"
    },
    {
      "mesh": 12,
      "name": "map.001_4"
    },
    {
      "mesh": 13,
      "name": "map.001_5"
    }
  ],
  "scene": 0,
  "scenes": [
    {
      "name": "Sketchfab_Scene",
      "nodes": [
        0
      ]
    }
  ]
}
